<svg xmlns="http://www.w3.org/2000/svg" viewBox="0 0 360 520" role="img" aria-label="Ev ve yaşam ürünleri">
  <defs><linearGradient id="bg" x1="0" x2="1" y1="0" y2="1"><stop stop-color="#fffaf3"/><stop offset="1" stop-color="#e7ded0"/></linearGradient></defs>
  <rect width="360" height="520" rx="22" fill="url(#bg)"/>
  <text x="30" y="58" font-family="Arial, sans-serif" font-size="29" font-weight="900" fill="#18385f">EV VE YAŞAM</text>
  <text x="30" y="94" font-family="Arial, sans-serif" font-size="29" font-weight="900" fill="#18385f">ÜRÜNLERİ</text>
  <path d="M260 76l32-28 32 28v48h-64z" fill="none" stroke="#18385f" stroke-width="10" stroke-linejoin="round"/>
  <rect x="48" y="202" width="68" height="118" rx="12" fill="#cfa15f"/><path d="M46 202c18-34 58-34 72 0z" fill="#f4d08d"/><rect x="72" y="320" width="20" height="62" rx="8" fill="#936b3f"/>
  <rect x="134" y="174" width="74" height="180" rx="20" fill="#f3f0e9"/><rect x="148" y="198" width="46" height="122" rx="14" fill="#d7c6ae"/>
  <path d="M54 396h170c22 0 40 18 40 40v18H36v-40c0-10 8-18 18-18z" fill="#b6a58e"/>
  <rect x="234" y="210" width="76" height="52" rx="26" fill="#6f7d74"/><rect x="248" y="262" width="48" height="128" rx="10" fill="#919d92"/>
  <circle cx="84" cy="174" r="28" fill="#8fa16c"/><rect x="78" y="196" width="12" height="54" fill="#6b7a4e"/>
  <rect y="458" width="360" height="62" fill="#18385f"/>
  <text x="34" y="496" font-family="Arial, sans-serif" font-size="18" font-weight="900" fill="#fff">KALİTELİ  •  KONFORLU  •  PRATİK</text>
</svg>
