<svg xmlns="http://www.w3.org/2000/svg" viewBox="0 0 360 180" role="img" aria-label="Food product group">
  <rect width="360" height="180" rx="18" fill="#f8f7f3"/>
  <ellipse cx="180" cy="154" rx="132" ry="13" fill="#ddd6c8"/>
  <rect x="42" y="74" width="43" height="76" rx="9" fill="#ba5b27"/>
  <rect x="48" y="57" width="31" height="20" rx="5" fill="#7d3e1d"/>
  <rect x="51" y="96" width="25" height="27" rx="5" fill="#fff1d4"/>
  <rect x="95" y="62" width="46" height="88" rx="10" fill="#d78528"/>
  <rect x="103" y="45" width="30" height="21" rx="5" fill="#7a4a20"/>
  <rect x="104" y="91" width="28" height="32" rx="6" fill="#fff3d8"/>
  <rect x="156" y="52" width="58" height="98" rx="11" fill="#bd3430"/>
  <path d="M163 52h44v-8c0-6-5-11-11-11h-22c-6 0-11 5-11 11z" fill="#7e2321"/>
  <rect x="168" y="88" width="34" height="35" rx="7" fill="#ffe6ba"/>
  <rect x="230" y="70" width="42" height="80" rx="9" fill="#6f9d46"/>
  <rect x="236" y="54" width="30" height="19" rx="5" fill="#3f6528"/>
  <rect x="238" y="99" width="26" height="27" rx="5" fill="#eff7df"/>
  <rect x="282" y="82" width="38" height="68" rx="8" fill="#e7b44a"/>
  <rect x="288" y="66" width="26" height="18" rx="5" fill="#8f6320"/>
  <rect x="291" y="104" width="20" height="22" rx="5" fill="#fff3cc"/>
</svg>
