<svg xmlns="http://www.w3.org/2000/svg" viewBox="0 0 360 520" role="img" aria-label="Yapı hırdavat ürünleri">
  <defs><linearGradient id="bg" x1="0" x2="1" y1="0" y2="1"><stop stop-color="#fff8ef"/><stop offset="1" stop-color="#f2dcc5"/></linearGradient></defs>
  <rect width="360" height="520" rx="22" fill="url(#bg)"/>
  <text x="30" y="58" font-family="Arial, sans-serif" font-size="27" font-weight="900" fill="#c96808">YAPI HIRDAVAT</text>
  <text x="30" y="94" font-family="Arial, sans-serif" font-size="27" font-weight="900" fill="#c96808">ÜRÜNLERİ</text>
  <path d="M266 46h62v58h-62zM278 58v46M300 46v58" fill="none" stroke="#c96808" stroke-width="8"/>
  <ellipse cx="180" cy="382" rx="132" ry="18" fill="#c6a27c" opacity=".3"/>
  <rect x="64" y="174" width="72" height="86" rx="14" fill="#efb622"/><rect x="82" y="132" width="36" height="46" rx="8" fill="#d68d10"/><path d="M100 260v108" stroke="#222" stroke-width="18" stroke-linecap="round"/>
  <path d="M170 164h38c18 0 34 14 34 32v64h-106v-64c0-18 15-32 34-32z" fill="#333a40"/><rect x="154" y="212" width="72" height="34" rx="8" fill="#f0a51c"/><path d="M188 260v118" stroke="#333a40" stroke-width="20" stroke-linecap="round"/>
  <path d="M260 172l42 42-118 118-42-42z" fill="#d9dee1"/><path d="M142 290l42 42-34 34-42-42z" fill="#c96808"/>
  <path d="M52 406h256" stroke="#4b5054" stroke-width="12" stroke-linecap="round"/><path d="M72 386h42M130 386h42M188 386h42M246 386h42" stroke="#4b5054" stroke-width="10" stroke-linecap="round"/>
  <rect y="458" width="360" height="62" fill="#c96808"/>
  <text x="42" y="496" font-family="Arial, sans-serif" font-size="18" font-weight="900" fill="#fff">GÜÇLÜ  •  DAYANIKLI  •  GÜVENİLİR</text>
</svg>
