<svg xmlns="http://www.w3.org/2000/svg" viewBox="0 0 360 520" role="img" aria-label="Otomotiv ürünleri">
  <defs><linearGradient id="bg" x1="0" x2="1" y1="0" y2="1"><stop stop-color="#f3f7fb"/><stop offset="1" stop-color="#d9e0e6"/></linearGradient></defs>
  <rect width="360" height="520" rx="22" fill="url(#bg)"/>
  <text x="30" y="58" font-family="Arial, sans-serif" font-size="29" font-weight="900" fill="#18385f">OTOMOTİV</text>
  <text x="30" y="94" font-family="Arial, sans-serif" font-size="29" font-weight="900" fill="#18385f">ÜRÜNLERİ</text>
  <circle cx="290" cy="80" r="47" fill="none" stroke="#18385f" stroke-width="9"/><path d="M256 80h68M290 46v68" stroke="#18385f" stroke-width="7"/>
  <ellipse cx="180" cy="382" rx="136" ry="18" fill="#98a4ad" opacity=".38"/>
  <path d="M52 282c12-48 46-82 96-82h62c44 0 78 34 96 82v54H52z" fill="#22282d"/><path d="M98 240h146c22 0 38 16 46 42H60c7-25 20-42 38-42z" fill="#4f5a62"/><rect x="116" y="214" width="86" height="42" rx="12" fill="#dfe8ef"/>
  <circle cx="104" cy="336" r="38" fill="#111"/><circle cx="104" cy="336" r="18" fill="#c7d0d5"/><circle cx="258" cy="336" r="38" fill="#111"/><circle cx="258" cy="336" r="18" fill="#c7d0d5"/>
  <rect x="54" y="392" width="66" height="28" rx="8" fill="#f0c33c"/><rect x="134" y="390" width="48" height="34" rx="10" fill="#7a858c"/><rect x="198" y="392" width="70" height="28" rx="8" fill="#f0c33c"/>
  <rect x="276" y="374" width="28" height="58" rx="9" fill="#111"/><rect x="282" y="354" width="16" height="22" rx="4" fill="#d33630"/>
  <rect y="458" width="360" height="62" fill="#18385f"/>
  <text x="30" y="496" font-family="Arial, sans-serif" font-size="18" font-weight="900" fill="#fff">KALİTE  •  PERFORMANS  •  GÜVENLİK</text>
</svg>
