<svg xmlns="http://www.w3.org/2000/svg" viewBox="0 0 360 520" role="img" aria-label="Medikal ürünler">
  <defs><linearGradient id="bg" x1="0" x2="1" y1="0" y2="1"><stop stop-color="#f5fffd"/><stop offset="1" stop-color="#d6efec"/></linearGradient></defs>
  <rect width="360" height="520" rx="22" fill="url(#bg)"/>
  <text x="30" y="58" font-family="Arial, sans-serif" font-size="30" font-weight="900" fill="#15877f">MEDİKAL</text>
  <text x="30" y="94" font-family="Arial, sans-serif" font-size="30" font-weight="900" fill="#15877f">ÜRÜNLER</text>
  <circle cx="286" cy="76" r="48" fill="none" stroke="#15877f" stroke-width="10"/><path d="M286 48v56M258 76h56" stroke="#15877f" stroke-width="13" stroke-linecap="round"/>
  <ellipse cx="180" cy="380" rx="132" ry="18" fill="#98b8b5" opacity=".38"/>
  <rect x="44" y="190" width="76" height="130" rx="10" fill="#f7fbff"/><rect x="54" y="208" width="56" height="74" rx="8" fill="#d9eef7"/><text x="60" y="305" font-family="Arial" font-size="17" font-weight="900" fill="#15877f">MASKE</text>
  <rect x="140" y="176" width="78" height="144" rx="12" fill="#f7fbff"/><rect x="154" y="204" width="50" height="56" rx="9" fill="#b9e1f0"/><text x="154" y="304" font-family="Arial" font-size="16" font-weight="900" fill="#15877f">ELDİVEN</text>
  <rect x="244" y="162" width="52" height="164" rx="16" fill="#d9f5f0"/><rect x="256" y="136" width="28" height="34" rx="8" fill="#15877f"/><rect x="254" y="222" width="32" height="56" rx="8" fill="#fff"/>
  <path d="M72 378c46-52 92-52 138 0" stroke="#355b66" stroke-width="11" fill="none" stroke-linecap="round"/><circle cx="62" cy="390" r="20" fill="#355b66"/><circle cx="220" cy="390" r="20" fill="#355b66"/>
  <rect x="250" y="356" width="54" height="58" rx="12" fill="#111"/><rect x="260" y="366" width="34" height="30" rx="5" fill="#f47a22"/>
  <rect y="458" width="360" height="62" fill="#15877f"/>
  <text x="34" y="496" font-family="Arial, sans-serif" font-size="18" font-weight="900" fill="#fff">SAĞLIKLI  •  GÜVENLİ  •  KALİTELİ</text>
</svg>
