<svg xmlns="http://www.w3.org/2000/svg" viewBox="0 0 360 520" role="img" aria-label="Endüstriyel sarf">
  <defs><linearGradient id="bg" x1="0" x2="1" y1="0" y2="1"><stop stop-color="#f7f8f8"/><stop offset="1" stop-color="#dfe3e5"/></linearGradient></defs>
  <rect width="360" height="520" rx="22" fill="url(#bg)"/>
  <text x="30" y="58" font-family="Arial, sans-serif" font-size="28" font-weight="900" fill="#18385f">ENDÜSTRİYEL</text>
  <text x="30" y="94" font-family="Arial, sans-serif" font-size="28" font-weight="900" fill="#18385f">SARF</text>
  <path d="M286 66m-34 0a34 34 0 1 0 68 0a34 34 0 1 0-68 0" fill="none" stroke="#18385f" stroke-width="11"/><path d="M286 28v76M248 66h76" stroke="#18385f" stroke-width="10" stroke-linecap="round"/>
  <ellipse cx="180" cy="388" rx="132" ry="18" fill="#aeb6bb" opacity=".45"/>
  <rect x="44" y="242" width="88" height="96" rx="10" fill="#23282c"/><rect x="58" y="220" width="60" height="26" rx="8" fill="#f0aa23"/><rect x="58" y="338" width="60" height="28" rx="8" fill="#111315"/>
  <rect x="148" y="180" width="48" height="188" rx="12" fill="#3a4146"/><rect x="156" y="148" width="32" height="40" rx="8" fill="#d94d24"/><rect x="155" y="240" width="34" height="62" rx="8" fill="#e8edf0"/>
  <circle cx="236" cy="338" r="42" fill="#4d565c"/><circle cx="236" cy="338" r="18" fill="#cbd2d6"/>
  <rect x="272" y="176" width="30" height="172" rx="10" fill="#f0f2f2"/><rect x="270" y="156" width="34" height="28" rx="8" fill="#2487c7"/>
  <path d="M48 404h260" stroke="#59646a" stroke-width="12" stroke-linecap="round"/><circle cx="78" cy="404" r="24" fill="#2f363b"/><circle cx="124" cy="404" r="24" fill="#2f363b"/><circle cx="236" cy="404" r="24" fill="#2f363b"/>
  <rect y="458" width="360" height="62" fill="#18385f"/>
  <text x="24" y="496" font-family="Arial, sans-serif" font-size="17" font-weight="900" fill="#fff">YÜKSEK PERFORMANS  •  DAYANIKLI</text>
</svg>
