<svg xmlns="http://www.w3.org/2000/svg" viewBox="0 0 360 180" role="img" aria-label="Cleaning product group">
  <rect width="360" height="180" rx="18" fill="#f7f8f8"/>
  <ellipse cx="180" cy="154" rx="126" ry="14" fill="#d7dcdf"/>
  <rect x="38" y="70" width="48" height="80" rx="12" fill="#18a4c7"/>
  <rect x="50" y="49" width="24" height="26" rx="5" fill="#0d6f89"/>
  <rect x="46" y="94" width="32" height="28" rx="7" fill="#eaf8fb"/>
  <rect x="96" y="50" width="40" height="100" rx="12" fill="#35bfd5"/>
  <rect x="105" y="34" width="22" height="20" rx="4" fill="#107b90"/>
  <rect x="103" y="88" width="27" height="30" rx="6" fill="#effbfc"/>
  <path d="M160 50h42c9 0 16 7 16 16v84h-74V66c0-9 7-16 16-16z" fill="#f7c948"/>
  <rect x="163" y="35" width="34" height="20" rx="5" fill="#da8d12"/>
  <rect x="154" y="88" width="54" height="34" rx="8" fill="#fff7d6"/>
  <rect x="236" y="64" width="52" height="86" rx="14" fill="#eef1f2"/>
  <rect x="247" y="44" width="31" height="26" rx="6" fill="#59656b"/>
  <rect x="245" y="94" width="35" height="30" rx="7" fill="#dce9ee"/>
  <path d="M294 82c18 9 29 25 27 48-20 8-42 4-57-11 1-18 12-32 30-37z" fill="#9bd15f"/>
  <circle cx="308" cy="95" r="6" fill="#fff" opacity=".75"/>
</svg>
