<svg xmlns="http://www.w3.org/2000/svg" viewBox="0 0 64 64" aria-hidden="true">
  <circle cx="32" cy="32" r="30" fill="#25d366"/>
  <path fill="#fff" d="M18.8 46.2 20.9 39a15.4 15.4 0 1 1 5.8 5.6l-7.9 1.6Zm8.3-4.4.5.3a12.5 12.5 0 1 0-3.8-3.7l.3.5-1.2 4.1 4.2-1.2Z"/>
  <path fill="#fff" d="M39.4 34.7c-.5-.3-3-1.5-3.5-1.6-.5-.2-.8-.3-1.2.3-.3.5-1.3 1.6-1.6 2-.3.3-.6.4-1.1.1-.5-.3-2.1-.8-4-2.5-1.5-1.3-2.5-3-2.8-3.5-.3-.5 0-.8.2-1 .2-.2.5-.6.8-.9.3-.3.3-.5.5-.8.2-.3.1-.6 0-.9-.1-.3-1.2-2.9-1.6-3.9-.4-.9-.8-.8-1.2-.8h-1c-.3 0-.9.1-1.4.6-.5.5-1.8 1.8-1.8 4.3 0 2.5 1.9 5 2.1 5.3.3.3 3.7 5.7 9 7.9 1.3.5 2.2.9 3 1.1 1.3.4 2.4.3 3.3.2 1-.2 3-1.2 3.4-2.4.4-1.2.4-2.2.3-2.4-.1-.2-.4-.3-.9-.6Z"/>
</svg>
